<svg width="123" height="16" viewBox="0 0 123 16" fill="none" xmlns="http://www.w3.org/2000/svg">
<path d="M15.6 1.04V15H12.8V5.92L9.06 15H6.94L3.18 5.92V15H0.38V1.04H3.56L8 11.42L12.44 1.04H15.6ZM17.6483 9.42C17.6483 8.3 17.8683 7.30667 18.3083 6.44C18.7616 5.57333 19.3683 4.90667 20.1283 4.44C20.9016 3.97333 21.7616 3.74 22.7083 3.74C23.5349 3.74 24.2549 3.90667 24.8683 4.24C25.4949 4.57333 25.9949 4.99333 26.3683 5.5V3.92H29.1883V15H26.3683V13.38C26.0083 13.9 25.5083 14.3333 24.8683 14.68C24.2416 15.0133 23.5149 15.18 22.6883 15.18C21.7549 15.18 20.9016 14.94 20.1283 14.46C19.3683 13.98 18.7616 13.3067 18.3083 12.44C17.8683 11.56 17.6483 10.5533 17.6483 9.42ZM26.3683 9.46C26.3683 8.78 26.2349 8.2 25.9683 7.72C25.7016 7.22667 25.3416 6.85333 24.8883 6.6C24.4349 6.33333 23.9483 6.2 23.4283 6.2C22.9083 6.2 22.4283 6.32667 21.9883 6.58C21.5483 6.83333 21.1883 7.20667 20.9083 7.7C20.6416 8.18 20.5083 8.75333 20.5083 9.42C20.5083 10.0867 20.6416 10.6733 20.9083 11.18C21.1883 11.6733 21.5483 12.0533 21.9883 12.32C22.4416 12.5867 22.9216 12.72 23.4283 12.72C23.9483 12.72 24.4349 12.5933 24.8883 12.34C25.3416 12.0733 25.7016 11.7 25.9683 11.22C26.2349 10.7267 26.3683 10.14 26.3683 9.46ZM36.163 15.18C35.2563 15.18 34.443 15.02 33.723 14.7C33.003 14.3667 32.4296 13.92 32.003 13.36C31.5896 12.8 31.363 12.18 31.323 11.5H34.143C34.1963 11.9267 34.403 12.28 34.763 12.56C35.1363 12.84 35.5963 12.98 36.143 12.98C36.6763 12.98 37.0896 12.8733 37.383 12.66C37.6896 12.4467 37.843 12.1733 37.843 11.84C37.843 11.48 37.6563 11.2133 37.283 11.04C36.923 10.8533 36.343 10.6533 35.543 10.44C34.7163 10.24 34.0363 10.0333 33.503 9.82C32.983 9.60667 32.5296 9.28 32.143 8.84C31.7696 8.4 31.583 7.80667 31.583 7.06C31.583 6.44667 31.7563 5.88667 32.103 5.38C32.463 4.87333 32.9696 4.47333 33.623 4.18C34.2896 3.88667 35.0696 3.74 35.963 3.74C37.283 3.74 38.3363 4.07333 39.123 4.74C39.9096 5.39333 40.343 6.28 40.423 7.4H37.743C37.703 6.96 37.5163 6.61333 37.183 6.36C36.863 6.09333 36.4296 5.96 35.883 5.96C35.3763 5.96 34.983 6.05333 34.703 6.24C34.4363 6.42667 34.303 6.68667 34.303 7.02C34.303 7.39333 34.4896 7.68 34.863 7.88C35.2363 8.06667 35.8163 8.26 36.603 8.46C37.403 8.66 38.063 8.86667 38.583 9.08C39.103 9.29333 39.5496 9.62667 39.923 10.08C40.3096 10.52 40.5096 11.1067 40.523 11.84C40.523 12.48 40.343 13.0533 39.983 13.56C39.6363 14.0667 39.1296 14.4667 38.463 14.76C37.8096 15.04 37.043 15.18 36.163 15.18ZM46.0814 6.22V11.58C46.0814 11.9533 46.1681 12.2267 46.3414 12.4C46.5281 12.56 46.8347 12.64 47.2614 12.64H48.5614V15H46.8014C44.4414 15 43.2614 13.8533 43.2614 11.56V6.22H41.9414V3.92H43.2614V1.18H46.0814V3.92H48.5614V6.22H46.0814ZM60.8753 9.22C60.8753 9.62 60.8486 9.98 60.7953 10.3H52.6953C52.762 11.1 53.042 11.7267 53.5353 12.18C54.0286 12.6333 54.6353 12.86 55.3553 12.86C56.3953 12.86 57.1353 12.4133 57.5753 11.52H60.5953C60.2753 12.5867 59.662 13.4667 58.7553 14.16C57.8486 14.84 56.7353 15.18 55.4153 15.18C54.3486 15.18 53.3886 14.9467 52.5353 14.48C51.6953 14 51.0353 13.3267 50.5553 12.46C50.0886 11.5933 49.8553 10.5933 49.8553 9.46C49.8553 8.31333 50.0886 7.30667 50.5553 6.44C51.022 5.57333 51.6753 4.90667 52.5153 4.44C53.3553 3.97333 54.322 3.74 55.4153 3.74C56.4686 3.74 57.4086 3.96667 58.2353 4.42C59.0753 4.87333 59.722 5.52 60.1753 6.36C60.642 7.18667 60.8753 8.14 60.8753 9.22ZM57.9753 8.42C57.962 7.7 57.702 7.12667 57.1953 6.7C56.6886 6.26 56.0686 6.04 55.3353 6.04C54.642 6.04 54.0553 6.25333 53.5753 6.68C53.1086 7.09333 52.822 7.67333 52.7153 8.42H57.9753ZM65.7191 5.64C66.0791 5.05333 66.5457 4.59333 67.1191 4.26C67.7057 3.92667 68.3724 3.76 69.1191 3.76V6.7H68.3791C67.4991 6.7 66.8324 6.90667 66.3791 7.32C65.9391 7.73333 65.7191 8.45333 65.7191 9.48V15H62.9191V3.92H65.7191V5.64ZM82.585 1.04V15H79.785V9.06H73.805V15H71.005V1.04H73.805V6.78H79.785V1.04H82.585ZM84.6209 9.42C84.6209 8.3 84.8409 7.30667 85.2809 6.44C85.7343 5.57333 86.3409 4.90667 87.1009 4.44C87.8743 3.97333 88.7343 3.74 89.6809 3.74C90.5076 3.74 91.2276 3.90667 91.8409 4.24C92.4676 4.57333 92.9676 4.99333 93.3409 5.5V3.92H96.1609V15H93.3409V13.38C92.9809 13.9 92.4809 14.3333 91.8409 14.68C91.2143 15.0133 90.4876 15.18 89.6609 15.18C88.7276 15.18 87.8743 14.94 87.1009 14.46C86.3409 13.98 85.7343 13.3067 85.2809 12.44C84.8409 11.56 84.6209 10.5533 84.6209 9.42ZM93.3409 9.46C93.3409 8.78 93.2076 8.2 92.9409 7.72C92.6743 7.22667 92.3143 6.85333 91.8609 6.6C91.4076 6.33333 90.9209 6.2 90.4009 6.2C89.8809 6.2 89.4009 6.32667 88.9609 6.58C88.5209 6.83333 88.1609 7.20667 87.8809 7.7C87.6143 8.18 87.4809 8.75333 87.4809 9.42C87.4809 10.0867 87.6143 10.6733 87.8809 11.18C88.1609 11.6733 88.5209 12.0533 88.9609 12.32C89.4143 12.5867 89.8943 12.72 90.4009 12.72C90.9209 12.72 91.4076 12.5933 91.8609 12.34C92.3143 12.0733 92.6743 11.7 92.9409 11.22C93.2076 10.7267 93.3409 10.14 93.3409 9.46ZM105.036 3.76C106.356 3.76 107.422 4.18 108.236 5.02C109.049 5.84667 109.456 7.00667 109.456 8.5V15H106.656V8.88C106.656 8 106.436 7.32667 105.996 6.86C105.556 6.38 104.956 6.14 104.196 6.14C103.422 6.14 102.809 6.38 102.356 6.86C101.916 7.32667 101.696 8 101.696 8.88V15H98.8956V3.92H101.696V5.3C102.069 4.82 102.542 4.44667 103.116 4.18C103.702 3.9 104.342 3.76 105.036 3.76ZM111.398 9.42C111.398 8.3 111.618 7.30667 112.058 6.44C112.512 5.57333 113.125 4.90667 113.898 4.44C114.672 3.97333 115.532 3.74 116.478 3.74C117.198 3.74 117.885 3.9 118.538 4.22C119.192 4.52667 119.712 4.94 120.098 5.46V0.2H122.938V15H120.098V13.36C119.752 13.9067 119.265 14.3467 118.638 14.68C118.012 15.0133 117.285 15.18 116.458 15.18C115.525 15.18 114.672 14.94 113.898 14.46C113.125 13.98 112.512 13.3067 112.058 12.44C111.618 11.56 111.398 10.5533 111.398 9.42ZM120.118 9.46C120.118 8.78 119.985 8.2 119.718 7.72C119.452 7.22667 119.092 6.85333 118.638 6.6C118.185 6.33333 117.698 6.2 117.178 6.2C116.658 6.2 116.178 6.32667 115.738 6.58C115.298 6.83333 114.938 7.20667 114.658 7.7C114.392 8.18 114.258 8.75333 114.258 9.42C114.258 10.0867 114.392 10.6733 114.658 11.18C114.938 11.6733 115.298 12.0533 115.738 12.32C116.192 12.5867 116.672 12.72 117.178 12.72C117.698 12.72 118.185 12.5933 118.638 12.34C119.092 12.0733 119.452 11.7 119.718 11.22C119.985 10.7267 120.118 10.14 120.118 9.46Z" fill="#9B51E0"/>
</svg>
